<?xml version="1.0" encoding="utf-8"?>
<!-- Generator: Adobe Illustrator 21.0.0, SVG Export Plug-In . SVG Version: 6.00 Build 0)  -->
<svg version="1.1" id="图层_1" xmlns="http://www.w3.org/2000/svg" xmlns:xlink="http://www.w3.org/1999/xlink" x="0px" y="0px"
	 viewBox="0 0 200 200" style="enable-background:new 0 0 200 200;" xml:space="preserve">
<style type="text/css">
	.st0{fill:#FFFFFF;}
</style>
<path class="st0" d="M96.7,27.7h6.4v89.5h-6.4C96.7,117.2,96.7,27.7,96.7,27.7z"/>
<path class="st0" d="M137.9,46.9l-3.7,5.2c16.8,11.7,26.5,29.6,26.5,49.1c0,16.2-6.3,31.5-17.8,43c-11.5,11.5-26.8,17.8-43,17.8
	c-16.2,0-31.5-6.3-43-17.8c-11.5-11.5-17.8-26.8-17.8-43c0-19.4,9.6-37.3,26.4-49.1L61.8,47c-17.4,12.2-29.1,31.5-29.1,54.3
	c0,37.1,30.1,67.2,67.2,67.2s67.2-30.1,67.2-67.2C167.1,78.4,155.3,59,137.9,46.9z"/>
</svg>
